<svg enable-background="new 0 0 600 365.7" viewBox="0 0 600 365.7" xmlns="http://www.w3.org/2000/svg"><g fill="#fff"><path d="m137.6 261.3c-14.9 14.7-34.6 23.9-55.6 26-50.3 4.4-86-40.5-75.6-119.1 9-70.3 61.4-116.3 99.5-128 10.1-17.5 24.5-29.7 42.6-32.8 58-10.4 63 52.4 48.2 129.5-8 41.1-22.7 78.9-43.5 106.8 35.6 33.7 81.8 53.9 130.8 57.3 62.7 3.9 93.4-13.6 107.4-36.6 0 0 27.3 47 9.5 71.5-22.7 31.9-85.4 27.3-133.6 11-48.2-16.2-95.4-46.6-129.7-85.6zm-19.1-24.6c-14.5-21.2-24.7-45-30.1-70-6.2-29.2-4.4-68.1 5.6-100-11.4 18.4-22.4 49.1-28.8 89.3-6.8 46.7 4.7 86 37.5 83.1 5.4 0 10.7-.7 15.8-2.4zm19.1-10.2c22.4-17.2 36.1-50.6 42.6-87.8 9.8-57.7 2.4-84-31.6-79.5-36.1 4.7-48.2 58.6-43.2 96.4 3.3 24.3 14.4 48.9 32.2 70.9z"/><path d="m279 200.7c5.3-2.7 10.1 1.2 6.5 11-11.3 29.2-31.9 54.7-55.3 50.9-22.4-4.1-40.5-43.2-29.2-92 8.6-37.8 52.9-59.5 77.4-44.3 0 0-11.9 13.9-22.7 58-7.4 30.7-12.7 55.3-3.9 56.5 9.7 1 19.2-17.9 27.2-40.1zm-19-103.4c-16.9-1.8-29.1-17-27.3-33.9.2-.8.2-1.7.3-2.4 4.8-21.5 26.2-35.1 47.7-30.3.6.2 1.1.3 1.7.5 23 5 28.9 26.4 20.6 43.2-6.8 14.3-25.2 24.5-43 22.9z"/><path d="m396.9 174.1c-4.7 27-9.2 50.3-.3 51.5 9.5 1.2 16.9-15.1 24.8-37.2h.6c5-2.7 10.1 1.2 6.2 11-11.3 29.2-31.6 52.1-55.3 48.2-14.8-3-23.9-19-27.6-41.1-4.4 19.3-11 41.1-32.8 44.9-23.9 3.6-45.5-15.7-42-35.2 4.1-21.8 27.9-32.8 49.7-39.6 4.4-1.5 13.3-4.1 23.6-7.7.3-5.9.9-12.3 1.8-18.4 2.1-13.9 3-36.1-9.2-35.5-11.3.6-20.6 10.7-23 19.9-3.3 12.3 11.9 13.3 18.7-4.7 0 0 .9 0 3.6 2.7 7.4 8 8.6 28.9-6.5 36.3-22.4 10.4-50.9-4.7-43.8-31 5-18.1 34.3-42.3 73.3-37.5 27.1 3.6 48 22.2 38.2 73.4zm-54.3 6.2c-8 5.9-10.7 12.3-12.7 20.6-3 13-3.9 23.9.6 23.6 5.3 1.1 6.8-14.9 12.1-44.2z"/><path d="m426.1 276.6c7.1-14.8 24.2-25.2 44.6-31.6 4.1-19 8.6-42.3 14.2-71.8 6.8-36.6 19.3-50 13-51.5-5.6-1.2-9.8 13.3-28.2 60.4-9.5 55.6-35.8 66-57.4 59.5-.8-4.5-1.1-9.2-.9-13.9-.3-68.8-1.8-111.1 17.2-125.6 19.9-14.5 57.7 1.8 58.3 2.1-.3.3-5.6 6.2-11 36.1 17.2-39.9 32.8-52.4 50.6-47.6 13.9 3.6 24.2 25.5 15.7 68.1-6.2 31.3-11.9 56.2-17.8 76.1 19.6-.3 36.9 2.1 49.7 7.7 36.1 15.1 18.1 56.8 1.2 69.1 0 0-3.6-13-26.1-23-12.8-5.9-25.9-11-39.3-15.4-5.1 10.7-11.7 20.6-19.6 29.5-26.2 30.4-84.8 13.9-64.2-28.2zm39.8-7.3v-.6c-5.7.9-11 3.6-15.1 7.7-27.2 26.3 2.9 48.1 15.1-7.1z"/></g></svg>