<svg xmlns="http://www.w3.org/2000/svg"><symbol id="github" viewBox="0 0 50 50"><style>.st0{fill:#fff}</style><path d="M18 40.2c-.3.1-.5.2-.5.5s.2.3.6.3c.3-.1.5-.2.5-.5 0-.2-.2-.3-.6-.3zm-1.8.3c-.3 0-.5.1-.5.4 0 .3.2.4.6.4.3 0 .5-.1.5-.4-.1-.4-.3-.5-.6-.4zm-2.6-.1c-.1.2.1.4.4.5.3.1.5.1.6-.2.1-.2-.1-.4-.4-.5-.3-.1-.5-.1-.6.2z" class="st0"/><path d="M47.2 2.8C45.4 1 43.2 0 40.6 0H9.4C6.8 0 4.6.9 2.7 2.8.9 4.6 0 6.8 0 9.4v31.3c0 2.6.9 4.8 2.8 6.6 1.8 1.8 4 2.8 6.6 2.8h8.4c.2 0 .5-.2.7-.4.2-.2.4-.6.4-1.1V43H18c-.5.1-1.1.1-1.8.1s-1.5-.1-2.3-.2c-.8-.1-1.5-.5-2.2-1-.7-.5-1.1-1.2-1.4-2l-.3-.7c-.2-.5-.6-1.1-1-1.7-.5-.6-.9-1-1.4-1.2l-.2-.2c-.2-.1-.3-.2-.4-.4-.1-.2-.2-.3-.3-.5-.1-.2 0-.3.2-.4.2-.1.5-.1.9-.1l.7.1c.4.1 1 .3 1.6.8.6.4 1.2 1 1.6 1.7.5.9 1.1 1.6 1.8 2 .7.5 1.4.7 2.1.7.7 0 1.3-.1 1.9-.2.5-.1 1-.3 1.5-.5.2-1.5.7-2.6 1.6-3.4-1.2-.1-2.3-.3-3.3-.6s-2-.7-3.1-1.3c-1.1-.6-1.9-1.3-2.6-2.2-.7-.9-1.3-2-1.7-3.4-.4-1.4-.7-3-.7-4.9 0-2.6.9-4.9 2.6-6.7-.8-2-.7-4.2.2-6.6.6-.2 1.6 0 2.8.4 1.2.5 2.1.9 2.7 1.3.6.3 1 .6 1.4.9 2-.6 4.1-.8 6.3-.8 2.1 0 4.2.3 6.3.8l1.2-.8c.8-.5 1.8-1 3-1.4 1.2-.4 2-.6 2.6-.4 1 2.5 1.1 4.7.3 6.6 1.7 1.8 2.6 4.1 2.6 6.7 0 1.8-.2 3.5-.7 4.9-.4 1.4-1 2.6-1.7 3.4-.7.9-1.6 1.6-2.6 2.2-1.1.6-2.1 1-3.1 1.3-1 .3-2.1.5-3.3.6 1.1 1 1.7 2.5 1.7 4.6v7.8c0 .4.1.7.2.9.1.2.3.4.5.5.2.1.5.1.6.2h8.1c2.6 0 4.8-.9 6.6-2.8 1.8-1.8 2.8-4 2.8-6.6V9.4c-.3-2.6-1.2-4.8-3.1-6.6z" class="st0"/><path d="M9.9 36.4c-.2.1-.1.3.1.5s.4.2.5.1c.2-.1.1-.3-.1-.5s-.4-.2-.5-.1zm-1.1-.8c-.1.2 0 .3.2.4.2.1.3.1.4-.1.1-.2 0-.3-.2-.4-.2-.1-.3 0-.4.1zm2.1 2.1c-.2.1-.2.3 0 .6s.4.4.6.2c.2-.2.2-.4 0-.6-.2-.3-.4-.4-.6-.2zm1.1 1.4c-.2.2-.2.4.1.6.3.3.5.3.7.1.2-.2.1-.4-.1-.6-.3-.2-.5-.3-.7-.1z" class="st0"/></symbol><symbol id="facebook" viewBox="0 0 50 50"><style>.st0{fill:#fff}</style><path d="M47.2 0H2.8C1.2 0 0 1.2 0 2.8v44.5C0 48.8 1.2 50 2.8 50h23.9V30.6h-6.5v-7.5h6.5v-5.6c0-6.5 3.9-10 9.7-10 2.8 0 5.1.2 5.8.3v6.7h-4c-3.1 0-3.7 1.5-3.7 3.7V23H42l-1 7.5h-6.5V50h12.7c1.5 0 2.8-1.2 2.8-2.8V2.8C50 1.2 48.8 0 47.2 0z" class="st0"/></symbol><symbol id="linkedin" viewBox="0 0 50 50"><style>.st0{fill:#fff}</style><path d="M47.2 2.8C45.4 1 43.2 0 40.6 0H9.4C6.8 0 4.6.9 2.8 2.8.9 4.6 0 6.8 0 9.4v31.3c0 2.6.9 4.8 2.8 6.6 1.8 1.8 4 2.8 6.6 2.8h31.3c2.6 0 4.8-.9 6.6-2.8 1.8-1.8 2.8-4 2.8-6.6V9.4c-.1-2.6-1-4.8-2.9-6.6zm-32 39.1H7.7V19.3h7.5v22.6zm-.6-26.8c-.8.7-1.8 1.1-3.1 1.1-1.2 0-2.2-.4-3-1.1-.8-.7-1.2-1.7-1.2-2.8s.4-2.1 1.2-2.8c.8-.7 1.8-1.1 3.1-1.1s2.3.4 3 1.1c.8.7 1.2 1.7 1.2 2.8-.1 1.1-.5 2-1.2 2.8zm27.7 26.8h-7.5V29.8c0-3.4-1.3-5.1-3.8-5.1-1 0-1.8.3-2.4.8-.7.5-1.1 1.2-1.5 1.9-.2.4-.2 1-.2 1.8v12.6h-7.5c.1-13.6.1-21.2 0-22.6h7.5v3.2c1.6-2.5 3.8-3.7 6.7-3.7 2.6 0 4.7.9 6.3 2.6s2.4 4.2 2.4 7.6v13z" class="st0"/></symbol><symbol id="pinterest" viewBox="0 0 50 50"><style>.st0{fill:#fff}</style><path d="M25 0C11.2 0 0 11.2 0 25s11.2 25 25 25 25-11.2 25-25S38.8 0 25 0zm2.9 33.3c-2.3 0-4.5-1.3-5.2-2.7 0 0-1.2 4.9-1.5 5.9-.9 3.4-3.7 6.7-3.9 7-.1.2-.5.1-.5-.1-.1-.4-.8-4.7.1-8.1.4-1.7 2.8-11.7 2.8-11.7s-.7-1.4-.7-3.4c0-3.2 1.8-5.5 4.1-5.5 1.9 0 2.9 1.5 2.9 3.2 0 2-1.2 4.9-1.9 7.6-.5 2.3 1.1 4.1 3.4 4.1 4.1 0 6.8-5.2 6.8-11.4 0-4.7-3.2-8.2-8.9-8.2-6.5 0-10.5 4.8-10.5 10.3 0 1.9.6 3.2 1.4 4.2.4.5.5.7.3 1.2-.1.4-.3 1.3-.4 1.7-.1.5-.6.7-1.1.5-3-1.2-4.4-4.5-4.4-8.2 0-6.1 5.1-13.4 15.3-13.4 8.2 0 13.6 5.9 13.6 12.3-.2 8.4-4.8 14.7-11.7 14.7z" class="st0"/></symbol><symbol id="email" viewBox="0 0 50 50"><style>.st0{fill:#fff}</style><path d="M45.6 6H4.4c-.7 0-1.3.1-1.9.4l22.4 22.4 5-4.8L47.5 6.4c-.6-.3-1.2-.4-1.9-.4zm4 2.5L33 25l16.5 16.5c.3-.6.4-1.2.4-1.9V10.4c.1-.7-.1-1.4-.3-1.9zM.4 8.5C.2 9 0 9.7 0 10.4v29.3c0 .7.2 1.3.4 1.9L17 25 .4 8.5z" class="st0"/><path d="M31 27.1l-5 4.8c-.3.3-.7.4-1 .4s-.7-.1-1-.4l-5-4.8L2.5 43.6c.6.3 1.2.4 1.9.4h41.2c.7 0 1.3-.2 1.9-.4L31 27.1z" class="st0"/></symbol></svg>