<?xml version="1.0" encoding="utf-8"?>
<!-- Generator: Adobe Illustrator 24.0.3, SVG Export Plug-In . SVG Version: 6.00 Build 0)  -->
<svg version="1.1" id="Layer_1" xmlns="http://www.w3.org/2000/svg" xmlns:xlink="http://www.w3.org/1999/xlink" x="0px" y="0px"
	 viewBox="0 0 199.8 119.5" style="enable-background:new 0 0 199.8 119.5;" xml:space="preserve">
<style type="text/css">
	.st0{fill:#FFFFFF;}
</style>
<g id="图层_2">
	<g>
		<path class="st0" d="M44.9,86.3c-5.1,5-11.7,8.1-18.8,8.8C9.1,96.6-3,81.4,0.5,54.8C3.6,31,21.3,15.5,34.2,11.5
			c3.4-5.9,8.3-10,14.4-11.1c19.6-3.5,21.3,17.7,16.3,43.8c-2.7,13.9-7.7,26.7-14.7,36.1c12,11.4,27.7,18.3,44.2,19.4
			c21.2,1.3,31.6-4.6,36.3-12.4c0,0,9.2,15.9,3.2,24.2c-7.7,10.8-28.9,9.2-45.2,3.7S56.5,99.5,44.9,86.3z M38.4,78
			c-4.9-7.2-8.4-15.2-10.2-23.7c-2.1-9.9-1.5-23,1.9-33.8c-3.8,6.2-7.5,16.6-9.7,30.2C18.1,66.5,22,79.8,33.1,78.8
			C34.9,78.8,36.7,78.5,38.4,78z M44.9,74.5c7.6-5.8,12.2-17.1,14.4-29.7c3.3-19.5,0.8-28.4-10.7-26.9C36.4,19.5,32.3,37.7,34,50.5
			C35.1,58.8,38.9,67.1,44.9,74.5z"/>
		<path class="st0" d="M92.7,65.8c1.8-0.9,3.4,0.4,2.2,3.7C91.1,79.4,84.1,88,76.2,86.7c-7.6-1.4-13.7-14.6-9.9-31.1
			c2.9-12.8,17.9-20.1,26.2-15c0,0-4,4.7-7.7,19.6c-2.5,10.4-4.3,18.7-1.3,19.1C86.8,79.7,90,73.3,92.7,65.8z M86.3,30.8
			c-5.7-0.6-9.8-5.8-9.2-11.5c0-0.3,0.1-0.6,0.1-0.8c1.6-7.3,8.9-11.9,16.1-10.2c0.2,0,0.4,0.1,0.6,0.1c7.8,1.7,9.8,8.9,7,14.6
			C98.5,27.9,92.3,31.4,86.3,30.8z"/>
		<path class="st0" d="M132.6,56.8c-1.6,9.1-3.1,17-0.1,17.4c3.2,0.4,5.7-5.1,8.4-12.6h0.2c1.7-0.9,3.4,0.4,2.1,3.7
			c-3.8,9.9-10.7,17.6-18.7,16.3c-5-1-8.1-6.4-9.3-13.9c-1.5,6.5-3.7,13.9-11.1,15.2C96,84.1,88.7,77.6,89.9,71
			c1.4-7.4,9.4-11.1,16.8-13.4c1.5-0.5,4.5-1.4,8-2.6c0.1-2,0.3-4.2,0.6-6.2c0.7-4.7,1-12.2-3.1-12c-3.8,0.2-7,3.6-7.8,6.7
			c-1.1,4.2,4,4.5,6.3-1.6c0,0,0.3,0,1.2,0.9c2.5,2.7,2.9,9.8-2.2,12.3c-7.6,3.5-17.2-1.6-14.8-10.5c1.7-6.1,11.6-14.3,24.8-12.7
			C128.8,33.2,135.9,39.5,132.6,56.8z M114.2,58.9c-2.7,2-3.6,4.2-4.3,7c-1,4.4-1.3,8.1,0.2,8C111.9,74.2,112.4,68.8,114.2,58.9z"/>
		<path class="st0" d="M142.5,91.5c2.4-5,8.2-8.5,15.1-10.7c1.4-6.4,2.9-14.3,4.8-24.3c2.3-12.4,6.5-16.9,4.4-17.4
			c-1.9-0.4-3.3,4.5-9.5,20.4c-3.2,18.8-12.1,22.3-19.4,20.1c-0.3-1.6-0.4-3.1-0.3-4.7c-0.1-23.3-0.6-37.6,5.8-42.5
			c6.7-4.9,19.5,0.6,19.7,0.7c-0.1,0.1-1.9,2.1-3.7,12.2c5.8-13.5,11.1-17.7,17.1-16.1c4.7,1.2,8.2,8.6,5.3,23
			c-2.1,10.6-4,19-6,25.7c6.6-0.1,12.5,0.7,16.8,2.6c12.2,5.1,6.1,19.2,0.4,23.4c0,0-1.2-4.4-8.8-7.8c-4.3-2-8.8-3.7-13.3-5.2
			c-1.7,3.6-3.9,7-6.6,10C155.3,111.3,135.5,105.7,142.5,91.5z M155.9,89v-0.2c-1.9,0.3-3.7,1.2-5.1,2.6
			C141.6,100.3,151.8,107.7,155.9,89z"/>
	</g>
</g>
<g id="图层_1">
	<title>logo</title>
	<g>
		<path d="M-890.6,363.3c-5.1,5-11.7,8.1-18.8,8.8c-17,1.5-29.1-13.7-25.6-40.3c3.1-23.8,20.8-39.3,33.7-43.3
			c3.4-5.9,8.3-10,14.4-11.1c19.6-3.5,21.3,17.7,16.3,43.8c-2.7,13.9-7.7,26.7-14.7,36.1c12,11.4,27.7,18.3,44.2,19.4
			c21.2,1.3,31.6-4.6,36.3-12.4c0,0,9.2,15.9,3.2,24.2c-7.7,10.8-28.9,9.2-45.2,3.7C-863.1,386.7-879,376.5-890.6,363.3z
			 M-897.1,355c-4.9-7.2-8.4-15.2-10.2-23.7c-2.1-9.9-1.5-23,1.9-33.8c-3.8,6.2-7.5,16.6-9.7,30.2c-2.3,15.8,1.6,29.1,12.7,28.1
			C-900.6,355.8-898.8,355.5-897.1,355z M-890.6,351.5c7.6-5.8,12.2-17.1,14.4-29.7c3.3-19.5,0.8-28.4-10.7-26.9
			c-12.2,1.6-16.3,19.8-14.6,32.6C-900.4,335.8-896.6,344.1-890.6,351.5z"/>
		<path d="M-842.8,342.8c1.8-0.9,3.4,0.4,2.2,3.7c-3.8,9.9-10.8,18.5-18.7,17.2c-7.6-1.4-13.7-14.6-9.9-31.1
			c2.9-12.8,17.9-20.1,26.2-15c0,0-4,4.7-7.7,19.6c-2.5,10.4-4.3,18.7-1.3,19.1C-848.7,356.7-845.5,350.3-842.8,342.8z
			 M-849.2,307.8c-5.7-0.6-9.8-5.8-9.2-11.5c0-0.3,0.1-0.6,0.1-0.8c1.6-7.3,8.9-11.9,16.1-10.2c0.2,0,0.4,0.1,0.6,0.1
			c7.8,1.7,9.8,8.9,7,14.6C-837,304.9-843.2,308.4-849.2,307.8z"/>
		<path d="M-802.9,333.8c-1.6,9.1-3.1,17-0.1,17.4c3.2,0.4,5.7-5.1,8.4-12.6h0.2c1.7-0.9,3.4,0.4,2.1,3.7
			c-3.8,9.9-10.7,17.6-18.7,16.3c-5-1-8.1-6.4-9.3-13.9c-1.5,6.5-3.7,13.9-11.1,15.2c-8.1,1.2-15.4-5.3-14.2-11.9
			c1.4-7.4,9.4-11.1,16.8-13.4c1.5-0.5,4.5-1.4,8-2.6c0.1-2,0.3-4.2,0.6-6.2c0.7-4.7,1-12.2-3.1-12c-3.8,0.2-7,3.6-7.8,6.7
			c-1.1,4.2,4,4.5,6.3-1.6c0,0,0.3,0,1.2,0.9c2.5,2.7,2.9,9.8-2.2,12.3c-7.6,3.5-17.2-1.6-14.8-10.5c1.7-6.1,11.6-14.3,24.8-12.7
			C-806.7,310.2-799.6,316.5-802.9,333.8z M-821.3,335.9c-2.7,2-3.6,4.2-4.3,7c-1,4.4-1.3,8.1,0.2,8
			C-823.6,351.2-823.1,345.8-821.3,335.9z"/>
		<path d="M-793,368.5c2.4-5,8.2-8.5,15.1-10.7c1.4-6.4,2.9-14.3,4.8-24.3c2.3-12.4,6.5-16.9,4.4-17.4c-1.9-0.4-3.3,4.5-9.5,20.4
			c-3.2,18.8-12.1,22.3-19.4,20.1c-0.3-1.6-0.4-3.1-0.3-4.7c-0.1-23.3-0.6-37.6,5.8-42.5c6.7-4.9,19.5,0.6,19.7,0.7
			c-0.1,0.1-1.9,2.1-3.7,12.2c5.8-13.5,11.1-17.7,17.1-16.1c4.7,1.2,8.2,8.6,5.3,23c-2.1,10.6-4,19-6,25.7
			c6.6-0.1,12.5,0.7,16.8,2.6c12.2,5.1,6.1,19.2,0.4,23.4c0,0-1.2-4.4-8.8-7.8c-4.3-2-8.8-3.7-13.3-5.2c-1.7,3.6-3.9,7-6.6,10
			C-780.2,388.3-800,382.7-793,368.5z M-779.6,366v-0.2c-1.9,0.3-3.7,1.2-5.1,2.6C-793.9,377.3-783.7,384.7-779.6,366z"/>
	</g>
</g>
</svg>
