<svg enable-background="new 0 0 50 50" viewBox="0 0 50 50" xmlns="http://www.w3.org/2000/svg"><g fill="#fff"><path d="m18 40.2c-.3.1-.5.2-.5.5s.2.3.6.3c.3-.1.5-.2.5-.5 0-.2-.2-.3-.6-.3z"/><path d="m16.2 40.5c-.3 0-.5.1-.5.4s.2.4.6.4c.3 0 .5-.1.5-.4-.1-.4-.3-.5-.6-.4z"/><path d="m13.6 40.4c-.1.2.1.4.4.5s.5.1.6-.2c.1-.2-.1-.4-.4-.5s-.5-.1-.6.2z"/><path d="m47.2 2.8c-1.8-1.8-4-2.8-6.6-2.8h-31.2c-2.6 0-4.8.9-6.7 2.8-1.8 1.8-2.7 4-2.7 6.6v31.3c0 2.6.9 4.8 2.8 6.6 1.8 1.8 4 2.8 6.6 2.8h7.3 1.1c.2 0 .5-.2.7-.4s.4-.6.4-1.1c0-.1 0-.8 0-2.2s0-2.5 0-3.4h-.9c-.5.1-1.1.1-1.8.1s-1.5-.1-2.3-.2-1.5-.5-2.2-1-1.1-1.2-1.4-2l-.3-.7c-.2-.5-.6-1.1-1-1.7-.5-.6-.9-1-1.4-1.2l-.2-.2c-.2-.1-.3-.2-.4-.4s-.2-.3-.3-.5 0-.3.2-.4.5-.1.9-.1l.7.1c.4.1 1 .3 1.6.8.6.4 1.2 1 1.6 1.7.5.9 1.1 1.6 1.8 2 .7.5 1.4.7 2.1.7s1.3-.1 1.9-.2c.5-.1 1-.3 1.5-.5.2-1.5.7-2.6 1.6-3.4-1.2-.1-2.3-.3-3.3-.6s-2-.7-3.1-1.3-1.9-1.3-2.6-2.2-1.3-2-1.7-3.4-.7-3-.7-4.9c0-2.6.9-4.9 2.6-6.7-.8-2-.7-4.2.2-6.6.6-.2 1.6 0 2.8.4 1.2.5 2.1.9 2.7 1.3.6.3 1 .6 1.4.9 2-.6 4.1-.8 6.3-.8 2.1 0 4.2.3 6.3.8l1.2-.8c.8-.5 1.8-1 3-1.4s2-.6 2.6-.4c1 2.5 1.1 4.7.3 6.6 1.7 1.8 2.6 4.1 2.6 6.7 0 1.8-.2 3.5-.7 4.9-.4 1.4-1 2.6-1.7 3.4-.7.9-1.6 1.6-2.6 2.2-1.1.6-2.1 1-3.1 1.3s-2.1.5-3.3.6c1.1 1 1.7 2.5 1.7 4.6v7.8c0 .4.1.7.2.9s.3.4.5.5.5.1.6.2h.8 7.3c2.6 0 4.8-.9 6.6-2.8 1.8-1.8 2.8-4 2.8-6.6v-31.1c-.3-2.6-1.2-4.8-3.1-6.6z"/><path d="m9.9 36.4c-.2.1-.1.3.1.5s.4.2.5.1c.2-.1.1-.3-.1-.5s-.4-.2-.5-.1z"/><path d="m8.8 35.6c-.1.2 0 .3.2.4s.3.1.4-.1 0-.3-.2-.4-.3 0-.4.1z"/><path d="m10.9 37.7c-.2.1-.2.3 0 .6s.4.4.6.2.2-.4 0-.6c-.2-.3-.4-.4-.6-.2z"/><path d="m12 39.1c-.2.2-.2.4.1.6.3.3.5.3.7.1s.1-.4-.1-.6c-.3-.2-.5-.3-.7-.1z"/></g></svg>