<svg enable-background="new 0 0 50 50" viewBox="0 0 50 50" xmlns="http://www.w3.org/2000/svg"><path d="m47.2 2.8c-1.8-1.8-4-2.8-6.6-2.8h-31.2c-2.6 0-4.8.9-6.6 2.8-1.9 1.8-2.8 4-2.8 6.6v31.3c0 2.6.9 4.8 2.8 6.6 1.8 1.8 4 2.8 6.6 2.8h31.3c2.6 0 4.8-.9 6.6-2.8 1.8-1.8 2.8-4 2.8-6.6v-31.3c-.1-2.6-1-4.8-2.9-6.6zm-32 39.1h-7.5v-22.6h7.5zm-.6-26.8c-.8.7-1.8 1.1-3.1 1.1-1.2 0-2.2-.4-3-1.1s-1.2-1.7-1.2-2.8.4-2.1 1.2-2.8 1.8-1.1 3.1-1.1 2.3.4 3 1.1c.8.7 1.2 1.7 1.2 2.8-.1 1.1-.5 2-1.2 2.8zm27.7 26.8h-7.5v-12.1c0-3.4-1.3-5.1-3.8-5.1-1 0-1.8.3-2.4.8-.7.5-1.1 1.2-1.5 1.9-.2.4-.2 1-.2 1.8v12.6h-7.5c.1-13.6.1-21.2 0-22.6h7.5v3.2c1.6-2.5 3.8-3.7 6.7-3.7 2.6 0 4.7.9 6.3 2.6s2.4 4.2 2.4 7.6z" fill="#fff"/></svg>