<svg xmlns="http://www.w3.org/2000/svg" id="Capa_1" viewBox="0 0 50 50" width="50" height="50"><style>.st0{fill:#fff}</style><path d="M18 40.2c-.3.1-.5.2-.5.5s.2.3.6.3c.3-.1.5-.2.5-.5 0-.2-.2-.3-.6-.3zm-1.8.3c-.3 0-.5.1-.5.4 0 .3.2.4.6.4.3 0 .5-.1.5-.4-.1-.4-.3-.5-.6-.4zm-2.6-.1c-.1.2.1.4.4.5.3.1.5.1.6-.2.1-.2-.1-.4-.4-.5-.3-.1-.5-.1-.6.2z" class="st0"/><path d="M47.2 2.8C45.4 1 43.2 0 40.6 0H9.4C6.8 0 4.6.9 2.7 2.8.9 4.6 0 6.8 0 9.4v31.3c0 2.6.9 4.8 2.8 6.6 1.8 1.8 4 2.8 6.6 2.8h8.4c.2 0 .5-.2.7-.4.2-.2.4-.6.4-1.1V43H18c-.5.1-1.1.1-1.8.1s-1.5-.1-2.3-.2c-.8-.1-1.5-.5-2.2-1-.7-.5-1.1-1.2-1.4-2l-.3-.7c-.2-.5-.6-1.1-1-1.7-.5-.6-.9-1-1.4-1.2l-.2-.2c-.2-.1-.3-.2-.4-.4-.1-.2-.2-.3-.3-.5-.1-.2 0-.3.2-.4.2-.1.5-.1.9-.1l.7.1c.4.1 1 .3 1.6.8.6.4 1.2 1 1.6 1.7.5.9 1.1 1.6 1.8 2 .7.5 1.4.7 2.1.7.7 0 1.3-.1 1.9-.2.5-.1 1-.3 1.5-.5.2-1.5.7-2.6 1.6-3.4-1.2-.1-2.3-.3-3.3-.6s-2-.7-3.1-1.3c-1.1-.6-1.9-1.3-2.6-2.2-.7-.9-1.3-2-1.7-3.4-.4-1.4-.7-3-.7-4.9 0-2.6.9-4.9 2.6-6.7-.8-2-.7-4.2.2-6.6.6-.2 1.6 0 2.8.4 1.2.5 2.1.9 2.7 1.3.6.3 1 .6 1.4.9 2-.6 4.1-.8 6.3-.8 2.1 0 4.2.3 6.3.8l1.2-.8c.8-.5 1.8-1 3-1.4 1.2-.4 2-.6 2.6-.4 1 2.5 1.1 4.7.3 6.6 1.7 1.8 2.6 4.1 2.6 6.7 0 1.8-.2 3.5-.7 4.9-.4 1.4-1 2.6-1.7 3.4-.7.9-1.6 1.6-2.6 2.2-1.1.6-2.1 1-3.1 1.3-1 .3-2.1.5-3.3.6 1.1 1 1.7 2.5 1.7 4.6v7.8c0 .4.1.7.2.9.1.2.3.4.5.5.2.1.5.1.6.2h8.1c2.6 0 4.8-.9 6.6-2.8 1.8-1.8 2.8-4 2.8-6.6V9.4c-.3-2.6-1.2-4.8-3.1-6.6z" class="st0"/><path d="M9.9 36.4c-.2.1-.1.3.1.5s.4.2.5.1c.2-.1.1-.3-.1-.5s-.4-.2-.5-.1zm-1.1-.8c-.1.2 0 .3.2.4.2.1.3.1.4-.1.1-.2 0-.3-.2-.4-.2-.1-.3 0-.4.1zm2.1 2.1c-.2.1-.2.3 0 .6s.4.4.6.2c.2-.2.2-.4 0-.6-.2-.3-.4-.4-.6-.2zm1.1 1.4c-.2.2-.2.4.1.6.3.3.5.3.7.1.2-.2.1-.4-.1-.6-.3-.2-.5-.3-.7-.1z" class="st0"/></svg>