<svg xmlns="http://www.w3.org/2000/svg" id="Capa_1" viewBox="0 0 50 50" width="50" height="50"><style>.st0{fill:#fff}</style><path d="M47.2 2.8C45.4 1 43.2 0 40.6 0H9.4C6.8 0 4.6.9 2.8 2.8.9 4.6 0 6.8 0 9.4v31.3c0 2.6.9 4.8 2.8 6.6 1.8 1.8 4 2.8 6.6 2.8h31.3c2.6 0 4.8-.9 6.6-2.8 1.8-1.8 2.8-4 2.8-6.6V9.4c-.1-2.6-1-4.8-2.9-6.6zm-32 39.1H7.7V19.3h7.5v22.6zm-.6-26.8c-.8.7-1.8 1.1-3.1 1.1-1.2 0-2.2-.4-3-1.1-.8-.7-1.2-1.7-1.2-2.8s.4-2.1 1.2-2.8c.8-.7 1.8-1.1 3.1-1.1s2.3.4 3 1.1c.8.7 1.2 1.7 1.2 2.8-.1 1.1-.5 2-1.2 2.8zm27.7 26.8h-7.5V29.8c0-3.4-1.3-5.1-3.8-5.1-1 0-1.8.3-2.4.8-.7.5-1.1 1.2-1.5 1.9-.2.4-.2 1-.2 1.8v12.6h-7.5c.1-13.6.1-21.2 0-22.6h7.5v3.2c1.6-2.5 3.8-3.7 6.7-3.7 2.6 0 4.7.9 6.3 2.6s2.4 4.2 2.4 7.6v13z" class="st0"/></svg>