<svg xmlns="http://www.w3.org/2000/svg" id="Capa_1" viewBox="0 0 50 50" width="50" height="50"><style>.st0{fill:#fff}</style><path d="M25 0C11.2 0 0 11.2 0 25s11.2 25 25 25 25-11.2 25-25S38.8 0 25 0zm2.9 33.3c-2.3 0-4.5-1.3-5.2-2.7 0 0-1.2 4.9-1.5 5.9-.9 3.4-3.7 6.7-3.9 7-.1.2-.5.1-.5-.1-.1-.4-.8-4.7.1-8.1.4-1.7 2.8-11.7 2.8-11.7s-.7-1.4-.7-3.4c0-3.2 1.8-5.5 4.1-5.5 1.9 0 2.9 1.5 2.9 3.2 0 2-1.2 4.9-1.9 7.6-.5 2.3 1.1 4.1 3.4 4.1 4.1 0 6.8-5.2 6.8-11.4 0-4.7-3.2-8.2-8.9-8.2-6.5 0-10.5 4.8-10.5 10.3 0 1.9.6 3.2 1.4 4.2.4.5.5.7.3 1.2-.1.4-.3 1.3-.4 1.7-.1.5-.6.7-1.1.5-3-1.2-4.4-4.5-4.4-8.2 0-6.1 5.1-13.4 15.3-13.4 8.2 0 13.6 5.9 13.6 12.3-.2 8.4-4.8 14.7-11.7 14.7z" class="st0"/></svg>